<mxfile host="app.diagrams.net" agent="Mozilla/5.0 (Windows NT 10.0; Win64; x64) AppleWebKit/537.36 (KHTML, like Gecko) Chrome/129.0.0.0 Safari/537.36" version="24.7.17">
  <diagram name="Page-1" id="kAfivArQYH6qIu69_w99">
    <mxGraphModel dx="2812" dy="928" grid="1" gridSize="10" guides="1" tooltips="1" connect="1" arrows="1" fold="1" page="1" pageScale="1" pageWidth="827" pageHeight="1169" math="0" shadow="0">
      <root>
        <mxCell id="0" />
        <mxCell id="1" parent="0" />
        <mxCell id="TVjdQ0pTr1xBhguUC_3d-25" value="&lt;div&gt;&lt;br&gt;&lt;/div&gt;&lt;div&gt;&lt;span style=&quot;background-color: initial;&quot;&gt;- Name : String&lt;/span&gt;&lt;br&gt;&lt;/div&gt;&lt;div&gt;- Phone Number : String&lt;/div&gt;&lt;div&gt;- Email Address : String&lt;/div&gt;" style="swimlane;fontStyle=0;childLayout=stackLayout;horizontal=1;startSize=60;fillColor=none;horizontalStack=0;resizeParent=1;resizeParentMax=0;resizeLast=0;collapsible=1;marginBottom=0;html=1;align=left;" parent="1" vertex="1">
          <mxGeometry x="70" y="260" width="150" height="100" as="geometry">
            <mxRectangle x="340" y="260" width="60" height="110" as="alternateBounds" />
          </mxGeometry>
        </mxCell>
        <mxCell id="TVjdQ0pTr1xBhguUC_3d-27" value="&lt;span style=&quot;text-wrap: nowrap;&quot;&gt;+&amp;nbsp;&lt;/span&gt;purchaseParkingPass(): void" style="text;strokeColor=none;fillColor=none;align=left;verticalAlign=top;spacingLeft=4;spacingRight=4;overflow=hidden;rotatable=0;points=[[0,0.5],[1,0.5]];portConstraint=eastwest;whiteSpace=wrap;html=1;" parent="TVjdQ0pTr1xBhguUC_3d-25" vertex="1">
          <mxGeometry y="60" width="150" height="40" as="geometry" />
        </mxCell>
        <mxCell id="TVjdQ0pTr1xBhguUC_3d-33" value="Person" style="rounded=0;whiteSpace=wrap;html=1;" parent="1" vertex="1">
          <mxGeometry x="70" y="220" width="150" height="40" as="geometry" />
        </mxCell>
        <mxCell id="TVjdQ0pTr1xBhguUC_3d-37" value="Address" style="rounded=0;whiteSpace=wrap;html=1;" parent="1" vertex="1">
          <mxGeometry x="414" y="220" width="160" height="40" as="geometry" />
        </mxCell>
        <mxCell id="TVjdQ0pTr1xBhguUC_3d-40" value="- Street : String&lt;div&gt;- City&amp;nbsp;&lt;span style=&quot;background-color: initial;&quot;&gt;: String&lt;/span&gt;&lt;/div&gt;&lt;div&gt;- State&amp;nbsp;&lt;span style=&quot;background-color: initial;&quot;&gt;: String&amp;nbsp;&lt;/span&gt;&lt;/div&gt;&lt;div&gt;- Postal Code&amp;nbsp;&lt;span style=&quot;background-color: initial;&quot;&gt;: String&lt;/span&gt;&lt;/div&gt;&lt;div&gt;- Country&amp;nbsp;&lt;span style=&quot;background-color: initial;&quot;&gt;: String&lt;/span&gt;&lt;/div&gt;" style="swimlane;fontStyle=0;childLayout=stackLayout;horizontal=1;startSize=100;fillColor=none;horizontalStack=0;resizeParent=1;resizeParentMax=0;resizeLast=0;collapsible=1;marginBottom=0;html=1;align=left;" parent="1" vertex="1">
          <mxGeometry x="414" y="260" width="160" height="140" as="geometry">
            <mxRectangle x="340" y="260" width="60" height="110" as="alternateBounds" />
          </mxGeometry>
        </mxCell>
        <mxCell id="TVjdQ0pTr1xBhguUC_3d-41" value="&lt;span style=&quot;color: rgb(0, 0, 0); font-family: Helvetica; font-size: 12px; font-style: normal; font-variant-ligatures: normal; font-variant-caps: normal; font-weight: 400; letter-spacing: normal; orphans: 2; text-align: left; text-indent: 0px; text-transform: none; widows: 2; word-spacing: 0px; -webkit-text-stroke-width: 0px; white-space: nowrap; background-color: rgb(251, 251, 251); text-decoration-thickness: initial; text-decoration-style: initial; text-decoration-color: initial; display: inline !important; float: none;&quot;&gt;+ Validate : boolean&lt;/span&gt;&lt;div&gt;&lt;span style=&quot;color: rgb(0, 0, 0); font-family: Helvetica; font-size: 12px; font-style: normal; font-variant-ligatures: normal; font-variant-caps: normal; font-weight: 400; letter-spacing: normal; orphans: 2; text-align: left; text-indent: 0px; text-transform: none; widows: 2; word-spacing: 0px; -webkit-text-stroke-width: 0px; white-space: nowrap; background-color: rgb(251, 251, 251); text-decoration-thickness: initial; text-decoration-style: initial; text-decoration-color: initial; display: inline !important; float: none;&quot;&gt;+ Output As Label : String&lt;br&gt;&lt;/span&gt;&lt;br&gt;&lt;br&gt;&lt;/div&gt;" style="text;strokeColor=none;fillColor=none;align=left;verticalAlign=top;spacingLeft=4;spacingRight=4;overflow=hidden;rotatable=0;points=[[0,0.5],[1,0.5]];portConstraint=eastwest;whiteSpace=wrap;html=1;" parent="TVjdQ0pTr1xBhguUC_3d-40" vertex="1">
          <mxGeometry y="100" width="160" height="40" as="geometry" />
        </mxCell>
        <mxCell id="TVjdQ0pTr1xBhguUC_3d-43" value="Student" style="rounded=0;whiteSpace=wrap;html=1;" parent="1" vertex="1">
          <mxGeometry x="-110" y="500" width="180" height="40" as="geometry" />
        </mxCell>
        <mxCell id="TVjdQ0pTr1xBhguUC_3d-44" value="Professor" style="rounded=0;whiteSpace=wrap;html=1;" parent="1" vertex="1">
          <mxGeometry x="150" y="500" width="150" height="40" as="geometry" />
        </mxCell>
        <mxCell id="TVjdQ0pTr1xBhguUC_3d-46" value="&lt;div&gt;&lt;br&gt;&lt;/div&gt;- Student Number : String&lt;div&gt;- Average Mark : double&lt;/div&gt;&lt;div&gt;- Major : String&lt;/div&gt;&lt;div&gt;- Enrollment Year : int&lt;/div&gt;&lt;div&gt;- Gpa : double&lt;/div&gt;" style="swimlane;fontStyle=0;childLayout=stackLayout;horizontal=1;startSize=90;fillColor=none;horizontalStack=0;resizeParent=1;resizeParentMax=0;resizeLast=0;collapsible=1;marginBottom=0;html=1;align=left;" parent="1" vertex="1">
          <mxGeometry x="-110" y="540" width="180" height="180" as="geometry">
            <mxRectangle x="340" y="260" width="60" height="110" as="alternateBounds" />
          </mxGeometry>
        </mxCell>
        <mxCell id="TVjdQ0pTr1xBhguUC_3d-47" value="&lt;div&gt;&lt;span style=&quot;text-wrap: nowrap;&quot;&gt;+registerCourse(): void&lt;/span&gt;&lt;/div&gt;&lt;div&gt;&lt;span style=&quot;text-wrap: nowrap;&quot;&gt;+calculateGPA(): double&lt;/span&gt;&lt;/div&gt;&lt;div&gt;&lt;span style=&quot;text-wrap: nowrap;&quot;&gt;+isEligibleToEnroll(): boolean&lt;/span&gt;&lt;/div&gt;&lt;div&gt;&lt;span style=&quot;text-wrap: nowrap;&quot;&gt;+getSeminarsTaken(): List&lt;/span&gt;&lt;/div&gt;&lt;div&gt;&lt;span style=&quot;text-wrap: nowrap;&quot;&gt;&amp;lt;Seminars&amp;gt;&lt;/span&gt;&lt;/div&gt;" style="text;strokeColor=none;fillColor=none;align=left;verticalAlign=top;spacingLeft=4;spacingRight=4;overflow=hidden;rotatable=0;points=[[0,0.5],[1,0.5]];portConstraint=eastwest;whiteSpace=wrap;html=1;" parent="TVjdQ0pTr1xBhguUC_3d-46" vertex="1">
          <mxGeometry y="90" width="180" height="90" as="geometry" />
        </mxCell>
        <mxCell id="TVjdQ0pTr1xBhguUC_3d-48" value="&lt;div&gt;- Nidn : String&lt;/div&gt;&lt;div&gt;- AcademicTitle : String&lt;/div&gt;&lt;div&gt;- Department : String&lt;/div&gt;&lt;div&gt;- ExpertiseField : String&lt;/div&gt;&lt;div&gt;- Salary : double&lt;/div&gt;" style="swimlane;fontStyle=0;childLayout=stackLayout;horizontal=1;startSize=100;fillColor=none;horizontalStack=0;resizeParent=1;resizeParentMax=0;resizeLast=0;collapsible=1;marginBottom=0;html=1;align=left;" parent="1" vertex="1">
          <mxGeometry x="150" y="540" width="150" height="190" as="geometry">
            <mxRectangle x="340" y="260" width="60" height="110" as="alternateBounds" />
          </mxGeometry>
        </mxCell>
        <mxCell id="TVjdQ0pTr1xBhguUC_3d-49" value="&lt;div&gt;+ teachCourse(): void&lt;/div&gt;&lt;div&gt;+ publishResearch(): void&lt;/div&gt;&lt;div&gt;+ getSalary(): double&lt;/div&gt;&lt;div&gt;+ setSalary(salary: double): void&lt;/div&gt;" style="text;strokeColor=none;fillColor=none;align=left;verticalAlign=top;spacingLeft=4;spacingRight=4;overflow=hidden;rotatable=0;points=[[0,0.5],[1,0.5]];portConstraint=eastwest;whiteSpace=wrap;html=1;" parent="TVjdQ0pTr1xBhguUC_3d-48" vertex="1">
          <mxGeometry y="100" width="150" height="90" as="geometry" />
        </mxCell>
        <mxCell id="TVjdQ0pTr1xBhguUC_3d-54" value="" style="endArrow=classic;html=1;rounded=0;" parent="1" edge="1">
          <mxGeometry width="50" height="50" relative="1" as="geometry">
            <mxPoint x="220" y="300" as="sourcePoint" />
            <mxPoint x="412" y="300" as="targetPoint" />
            <Array as="points" />
          </mxGeometry>
        </mxCell>
        <mxCell id="TVjdQ0pTr1xBhguUC_3d-60" value="&lt;font style=&quot;font-size: 12px;&quot;&gt;0..1&lt;/font&gt;" style="text;html=1;align=center;verticalAlign=middle;resizable=0;points=[];autosize=1;strokeColor=none;fillColor=none;" parent="1" vertex="1">
          <mxGeometry x="230" y="260" width="40" height="30" as="geometry" />
        </mxCell>
        <mxCell id="Hwlg224lohM67ew3putE-15" value="&lt;font style=&quot;font-size: 12px;&quot;&gt;1&lt;/font&gt;" style="text;html=1;align=center;verticalAlign=middle;resizable=0;points=[];autosize=1;strokeColor=none;fillColor=none;" parent="1" vertex="1">
          <mxGeometry x="370" y="260" width="30" height="30" as="geometry" />
        </mxCell>
        <mxCell id="OwTIcqvOAkOJUVtGrlyk-2" value="" style="endArrow=classic;html=1;rounded=0;entryX=0.468;entryY=0.987;entryDx=0;entryDy=0;entryPerimeter=0;" parent="1" target="TVjdQ0pTr1xBhguUC_3d-27" edge="1">
          <mxGeometry width="50" height="50" relative="1" as="geometry">
            <mxPoint x="140" y="400" as="sourcePoint" />
            <mxPoint x="150" y="540" as="targetPoint" />
          </mxGeometry>
        </mxCell>
        <mxCell id="OwTIcqvOAkOJUVtGrlyk-3" value="" style="endArrow=none;html=1;rounded=0;" parent="1" edge="1">
          <mxGeometry width="50" height="50" relative="1" as="geometry">
            <mxPoint x="140" y="400" as="sourcePoint" />
            <mxPoint x="240" y="400" as="targetPoint" />
          </mxGeometry>
        </mxCell>
        <mxCell id="OwTIcqvOAkOJUVtGrlyk-4" value="" style="endArrow=none;html=1;rounded=0;exitX=0.603;exitY=0.014;exitDx=0;exitDy=0;exitPerimeter=0;" parent="1" source="TVjdQ0pTr1xBhguUC_3d-44" edge="1">
          <mxGeometry width="50" height="50" relative="1" as="geometry">
            <mxPoint x="200" y="440" as="sourcePoint" />
            <mxPoint x="240" y="400" as="targetPoint" />
          </mxGeometry>
        </mxCell>
        <mxCell id="OwTIcqvOAkOJUVtGrlyk-5" value="" style="endArrow=none;html=1;rounded=0;" parent="1" edge="1">
          <mxGeometry width="50" height="50" relative="1" as="geometry">
            <mxPoint y="400" as="sourcePoint" />
            <mxPoint x="140" y="400" as="targetPoint" />
          </mxGeometry>
        </mxCell>
        <mxCell id="OwTIcqvOAkOJUVtGrlyk-6" value="" style="endArrow=none;html=1;rounded=0;exitX=0.603;exitY=0.014;exitDx=0;exitDy=0;exitPerimeter=0;" parent="1" edge="1">
          <mxGeometry width="50" height="50" relative="1" as="geometry">
            <mxPoint x="-1" y="500" as="sourcePoint" />
            <mxPoint y="400" as="targetPoint" />
          </mxGeometry>
        </mxCell>
        <mxCell id="OwTIcqvOAkOJUVtGrlyk-7" value="lives at" style="text;html=1;align=center;verticalAlign=middle;resizable=0;points=[];autosize=1;strokeColor=none;fillColor=none;" parent="1" vertex="1">
          <mxGeometry x="280" y="270" width="60" height="30" as="geometry" />
        </mxCell>
      </root>
    </mxGraphModel>
  </diagram>
</mxfile>
